<svg width="30" height="30" viewBox="0 0 30 30" fill="none" xmlns="http://www.w3.org/2000/svg">
<path d="M18.75 3.75H11.25C10.2554 3.75 9.30161 4.14509 8.59835 4.84835C7.89509 5.55161 7.5 6.50544 7.5 7.5V12.5H8.75V7.5C8.75 6.83696 9.01339 6.20107 9.48223 5.73223C9.95107 5.26339 10.587 5 11.25 5H18.75C19.413 5 20.0489 5.26339 20.5178 5.73223C20.9866 6.20107 21.25 6.83696 21.25 7.5V23.75C21.25 24.413 20.9866 25.0489 20.5178 25.5178C20.0489 25.9866 19.413 26.25 18.75 26.25H11.25C10.587 26.25 9.95107 25.9866 9.48223 25.5178C9.01339 25.0489 8.75 24.413 8.75 23.75V18.75H7.5V23.75C7.5 24.7446 7.89509 25.6984 8.59835 26.4017C9.30161 27.1049 10.2554 27.5 11.25 27.5H18.75C19.7446 27.5 20.6984 27.1049 21.4017 26.4017C22.1049 25.6984 22.5 24.7446 22.5 23.75V7.5C22.5 6.50544 22.1049 5.55161 21.4017 4.84835C20.6984 4.14509 19.7446 3.75 18.75 3.75ZM3.75 15H16.5625L12.5 10.9375L13.325 10L18.95 15.625L13.325 21.25L12.5 20.3125L16.5625 16.25H3.75V15Z" fill="white"/>
</svg>
